HIERARCHY
ROOT root
{
	OFFSET	0	13.1	24.9
	CHANNELS 6  Xposition Yposition Zposition Xrotation Yrotation Zrotation
	JOINT spine_1
	{
		OFFSET	0	9.99999	0
		CHANNELS 3  Xrotation Yrotation Zrotation
		JOINT spine_2
		{
			OFFSET	0	112	-10
			CHANNELS 3  Xrotation Yrotation Zrotation
			JOINT spine_3
			{
				OFFSET	0	206.5	19.3
				CHANNELS 3  Xrotation Yrotation Zrotation
				JOINT spine_4
				{
					OFFSET	0	110.4	14.6
					CHANNELS 3  Xrotation Yrotation Zrotation
					JOINT neck_1
					{
						OFFSET	0	71.8	-50.3
						CHANNELS 3  Xrotation Yrotation Zrotation
						JOINT neck_2
						{
							OFFSET	0	86.2	-25.8
							CHANNELS 3  Xrotation Yrotation Zrotation
							JOINT head_ee
							{
								OFFSET	0	179.8	-8.7
								CHANNELS 3  Xrotation Yrotation Zrotation
								End Site
								{
									OFFSET	1	0	0
								}
							}
						}
					}
					JOINT left_clavicle
					{
						OFFSET	-43.2	22.4	-70.8
						CHANNELS 3  Xrotation Yrotation Zrotation
						JOINT left_shoulder
						{
							OFFSET	-93.9	-5.79999	48.7
							CHANNELS 3  Xrotation Yrotation Zrotation
							JOINT left_elbow
							{
								OFFSET	-291.4	-30.8	15.2
								CHANNELS 3  Xrotation Yrotation Zrotation
								JOINT left_lowarm_twist
								{
									OFFSET	-110.7	-3.89999	13.6
									CHANNELS 3  Xrotation Yrotation Zrotation
									JOINT left_hand
									{
										OFFSET	-110.7	-3.89999	13.6
										CHANNELS 3  Xrotation Yrotation Zrotation
										JOINT left_ee
										{
											OFFSET	-80.8	-5.10001	12.1
											CHANNELS 3  Xrotation Yrotation Zrotation
											End Site
											{
												OFFSET	1	0	0
											}
										}
									}
								}
							}
						}
					}
					JOINT right_clavicle
					{
						OFFSET	43.2	22.4	-70.8
						CHANNELS 3  Xrotation Yrotation Zrotation
						JOINT right_shoulder
						{
							OFFSET	93.9	-5.79999	48.7
							CHANNELS 3  Xrotation Yrotation Zrotation
							JOINT right_elbow
							{
								OFFSET	291.4	-30.8	15.2
								CHANNELS 3  Xrotation Yrotation Zrotation
								JOINT right_lowarm_twist
								{
									OFFSET	110.7	-3.89999	13.6
									CHANNELS 3  Xrotation Yrotation Zrotation
									JOINT right_hand
									{
										OFFSET	110.7	-3.89999	13.6
										CHANNELS 3  Xrotation Yrotation Zrotation
										JOINT right_ee
										{
											OFFSET	80.8	-5.10001	12.1
											CHANNELS 3  Xrotation Yrotation Zrotation
											End Site
											{
												OFFSET	1	0	0
											}
										}
									}
								}
							}
						}
					}
				}
			}
		}
	}
	JOINT left_hip
	{
		OFFSET	-82.8	-127.5	0.300001
		CHANNELS 3  Xrotation Yrotation Zrotation
		JOINT left_knee
		{
			OFFSET	-28.2	-396.7	2.2
			CHANNELS 3  Xrotation Yrotation Zrotation
			JOINT left_ankle
			{
				OFFSET	-11.7	-411.3	35.4
				CHANNELS 3  Xrotation Yrotation Zrotation
				JOINT left_toes
				{
					OFFSET	0	-60	-88.6
					CHANNELS 3  Xrotation Yrotation Zrotation
					JOINT left_foot_ee
					{
						OFFSET	-22.5	-16.5	-42.2
						CHANNELS 3  Xrotation Yrotation Zrotation
						End Site
						{
							OFFSET	1	0	0
						}
					}
				}
			}
		}
	}
	JOINT right_hip
	{
		OFFSET	82.8	-127.5	0.300001
		CHANNELS 3  Xrotation Yrotation Zrotation
		JOINT right_knee
		{
			OFFSET	28.2	-396.7	2.2
			CHANNELS 3  Xrotation Yrotation Zrotation
			JOINT right_ankle
			{
				OFFSET	11.7	-411.3	35.4
				CHANNELS 3  Xrotation Yrotation Zrotation
				JOINT right_toes
				{
					OFFSET	0	-60	-88.6
					CHANNELS 3  Xrotation Yrotation Zrotation
					JOINT right_foot_ee
					{
						OFFSET	22.5	-16.5	-42.2
						CHANNELS 3  Xrotation Yrotation Zrotation
						End Site
						{
							OFFSET	1	0	0
						}
					}
				}
			}
		}
	}
}
MOTION
Frames: 13
Frame Time: 0.02
2441.22873231 751.236 -1605.69741641 -44.586040917 81.9050208584 38.1188591784 3.79662 0.0432565 2.16045 3.79922 -0.0942739 2.15883 3.79428 -0.406557 2.12231 3.788 -0.066357 2.15987 -13.6342 10.7405 -0.975472 -13.9641 21.0693 2.47494 -0.0 0.0 -0.0 -3.24963 20.9127 -2.26222 -20.4939 -45.3782 59.5059 0.647217 -17.7766 0.101217 -55.5851 -4.73936 4.94266 1.38719 9.34028 12.9111 -0.0 0.0 -0.0 7.84651 -20.9781 -13.9543 -25.6583 35.5798 -61.1663 1.46444 35.9564 -0.475231 60.7147 1.83797 7.17346 -0.790082 -14.8678 -1.1788 0.0 0.0 0.0 13.5014 25.4465 -2.07501 -7.6486 0.238528 1.14873 16.7588 18.3647 -2.3642 -40.1144 0.0 0.0 -0.0 0.0 -0.0 9.59107 8.11067 -0.958252 -1.52634 -0.0598309 -0.22659 36.0238 -7.66499 4.5001 -32.7146 0.0 0.0 0.0 0.0 0.0 
2434.72945066 751.236 -1586.40601934 -64.3047031371 83.7021806446 57.9885835978 3.79662 0.0432565 2.16045 3.79922 -0.0942739 2.15883 3.79428 -0.406557 2.12231 3.788 -0.066357 2.15987 -13.6342 10.7405 -0.975472 -13.9641 21.0693 2.47494 -0.0 0.0 -0.0 -3.24963 20.9127 -2.26222 -20.4939 -45.3782 59.5059 0.647217 -17.7766 0.101217 -55.5851 -4.73936 4.94266 1.38719 9.34028 12.9111 -0.0 0.0 -0.0 7.84651 -20.9781 -13.9543 -25.6583 35.5798 -61.1663 1.46444 35.9564 -0.475231 60.7147 1.83797 7.17346 -0.790082 -14.8678 -1.1788 0.0 0.0 0.0 13.5014 25.4465 -2.07501 -7.6486 0.238528 1.14873 16.7588 18.3647 -2.3642 -40.1144 0.0 0.0 -0.0 0.0 -0.0 9.59107 8.11067 -0.958252 -1.52634 -0.0598309 -0.22659 36.0238 -7.66499 4.5001 -32.7146 0.0 0.0 0.0 0.0 0.0 
2419.33434207 755.818 -1578.2209437 -86.8407765931 83.6493153572 81.3563430221 3.67374 0.385045 2.23197 3.67648 0.242276 2.25193 3.68467 -0.0911728 2.26309 3.67762 0.267292 2.2491 -12.3563 7.57073 -2.11215 -12.486 15.716 0.174473 -0.0 0.0 -0.0 -2.88848 15.5118 -2.77689 -22.7043 -46.6697 61.971 0.4693 -13.0877 0.0538342 -52.5857 -4.37773 4.81125 1.92612 12.483 17.5952 -0.0 0.0 -0.0 8.94759 -22.1284 -15.477 -27.4241 32.5828 -60.118 1.47217 36.0998 -0.479777 58.0442 1.60293 6.9246 1.25435 -11.4876 -12.819 0.0 0.0 0.0 11.5349 25.7188 -1.85832 -1.57498 0.0616381 0.233838 4.23338 6.92675 -0.612891 -30.7674 0.0 0.0 -0.0 0.0 -0.0 11.736 0.359125 -2.74195 -6.25089 -0.206435 -0.936642 36.7272 -6.58041 4.56408 -38.8492 0.0 0.0 0.0 0.0 0.0 
2412.53500835 755.417 -1560.99965644 -103.929359099 83.1021205974 98.7155416784 3.46634 0.56586 2.19003 3.46891 0.425391 2.22158 3.48434 0.0866535 2.26026 3.47749 0.442443 2.21825 -11.8903 6.38034 -1.25283 -11.9721 12.9012 0.590844 -0.0 0.0 -0.0 -2.70774 12.7938 -2.98942 -21.7232 -47.0268 63.9663 0.418363 -11.7087 0.0428969 -50.1578 -4.0903 4.69113 2.99324 11.1209 24.4669 -0.0 0.0 -0.0 9.72787 -20.411 -16.9553 -29.2423 31.2724 -58.6062 1.44716 35.6339 -0.465126 58.8513 1.67273 7.00096 1.85452 -11.3942 -16.7467 0.0 0.0 0.0 12.8943 22.6813 -3.22662 -4.57856 0.16125 0.683984 7.6447 -13.5549 -1.1777 -22.3224 0.0 0.0 -0.0 0.0 -0.0 12.586 -3.98989 -1.66759 -8.06432 -0.247073 -1.21195 36.7001 -4.50194 4.56105 -38.9818 0.0 0.0 0.0 0.0 0.0 
2410.60558688 756.404 -1555.38264384 -108.852309321 82.3906991985 103.767419022 3.44502 0.467666 2.17882 3.4476 0.328109 2.20415 3.45915 -0.00795905 2.22841 3.45239 0.34399 2.20173 -11.7441 6.95641 -0.184621 -11.8338 13.2996 1.76451 -0.0 0.0 -0.0 -2.69247 13.4104 -2.85083 -19.7323 -47.9394 65.1095 0.386304 -10.8336 0.0366307 -50.1463 -4.08894 4.69053 3.02469 10.8237 24.594 -0.0 0.0 -0.0 10.0493 -17.6693 -17.9192 -30.1039 31.5602 -58.0475 1.37954 34.3462 -0.426349 59.9973 1.77368 7.10768 1.68988 -12.6561 -16.088 0.0 0.0 0.0 13.2284 21.5554 -2.66613 -4.46598 0.157943 0.667023 14.6925 -21.915 -2.35643 -18.759 0.0 0.0 -0.0 0.0 -0.0 12.5459 -4.76087 -1.77056 -7.21351 -0.229092 -1.08263 35.343 -1.75668 4.44117 -38.1794 0.0 0.0 0.0 0.0 0.0 
2410.45361408 756.404 -1554.65238442 -109.607997948 82.3554001121 104.529852497 3.44502 0.467666 2.17882 3.4476 0.328109 2.20415 3.45915 -0.00795905 2.22841 3.45239 0.34399 2.20173 -11.7441 6.95641 -0.184621 -11.8338 13.2996 1.76451 -0.0 0.0 -0.0 -2.69247 13.4104 -2.85083 -19.7323 -47.9394 65.1095 0.386304 -10.8336 0.0366307 -50.1463 -4.08894 4.69053 3.02469 10.8237 24.594 -0.0 0.0 -0.0 10.0493 -17.6693 -17.9192 -30.1039 31.5602 -58.0475 1.37954 34.3462 -0.426349 59.9973 1.77368 7.10768 1.68988 -12.6561 -16.088 0.0 0.0 0.0 13.2284 21.5554 -2.66613 -4.46598 0.157943 0.667023 14.6925 -21.915 -2.35643 -18.759 0.0 0.0 -0.0 0.0 -0.0 12.5459 -4.76087 -1.77056 -7.21351 -0.229092 -1.08263 35.343 -1.75668 4.44117 -38.1794 0.0 0.0 0.0 0.0 0.0 
2410.36021553 756.404 -1554.20015396 -110.072282185 82.332881783 104.998312471 3.44502 0.467666 2.17882 3.4476 0.328109 2.20415 3.45915 -0.00795905 2.22841 3.45239 0.34399 2.20173 -11.7441 6.95641 -0.184621 -11.8338 13.2996 1.76451 -0.0 0.0 -0.0 -2.69247 13.4104 -2.85083 -19.7323 -47.9394 65.1095 0.386304 -10.8336 0.0366307 -50.1463 -4.08894 4.69053 3.02469 10.8237 24.594 -0.0 0.0 -0.0 10.0493 -17.6693 -17.9192 -30.1039 31.5602 -58.0475 1.37954 34.3462 -0.426349 59.9973 1.77368 7.10768 1.68988 -12.6561 -16.088 0.0 0.0 0.0 13.2284 21.5554 -2.66613 -4.46598 0.157943 0.667023 14.6925 -21.915 -2.35643 -18.759 0.0 0.0 -0.0 0.0 -0.0 12.5459 -4.76087 -1.77056 -7.21351 -0.229092 -1.08263 35.343 -1.75668 4.44117 -38.1794 0.0 0.0 0.0 0.0 0.0 
2409.96257825 756.404 -1552.24441226 -112.046732733 82.2298265387 106.990811582 3.44502 0.467666 2.17882 3.4476 0.328109 2.20415 3.45915 -0.00795905 2.22841 3.45239 0.34399 2.20173 -11.7441 6.95641 -0.184621 -11.8338 13.2996 1.76451 -0.0 0.0 -0.0 -2.69247 13.4104 -2.85083 -19.7323 -47.9394 65.1095 0.386304 -10.8336 0.0366307 -50.1463 -4.08894 4.69053 3.02469 10.8237 24.594 -0.0 0.0 -0.0 10.0493 -17.6693 -17.9192 -30.1039 31.5602 -58.0475 1.37954 34.3462 -0.426349 59.9973 1.77368 7.10768 1.68988 -12.6561 -16.088 0.0 0.0 0.0 13.2284 21.5554 -2.66613 -4.46598 0.157943 0.667023 14.6925 -21.915 -2.35643 -18.759 0.0 0.0 -0.0 0.0 -0.0 12.5459 -4.76087 -1.77056 -7.21351 -0.229092 -1.08263 35.343 -1.75668 4.44117 -38.1794 0.0 0.0 0.0 0.0 0.0 
2409.59158813 756.404 -1550.37286042 -113.883798782 82.1228521682 108.845134432 3.44502 0.467666 2.17882 3.4476 0.328109 2.20415 3.45915 -0.00795905 2.22841 3.45239 0.34399 2.20173 -11.7441 6.95641 -0.184621 -11.8338 13.2996 1.76451 -0.0 0.0 -0.0 -2.69247 13.4104 -2.85083 -19.7323 -47.9394 65.1095 0.386304 -10.8336 0.0366307 -50.1463 -4.08894 4.69053 3.02469 10.8237 24.594 -0.0 0.0 -0.0 10.0493 -17.6693 -17.9192 -30.1039 31.5602 -58.0475 1.37954 34.3462 -0.426349 59.9973 1.77368 7.10768 1.68988 -12.6561 -16.088 0.0 0.0 0.0 13.2284 21.5554 -2.66613 -4.46598 0.157943 0.667023 14.6925 -21.915 -2.35643 -18.759 0.0 0.0 -0.0 0.0 -0.0 12.5459 -4.76087 -1.77056 -7.21351 -0.229092 -1.08263 35.343 -1.75668 4.44117 -38.1794 0.0 0.0 0.0 0.0 0.0 
2410.16159382 756.404 -1553.22951775 -111.059065379 82.2828749416 105.994055203 3.44502 0.467666 2.17882 3.4476 0.328109 2.20415 3.45915 -0.00795905 2.22841 3.45239 0.34399 2.20173 -11.7441 6.95641 -0.184621 -11.8338 13.2996 1.76451 -0.0 0.0 -0.0 -2.69247 13.4104 -2.85083 -19.7323 -47.9394 65.1095 0.386304 -10.8336 0.0366307 -50.1463 -4.08894 4.69053 3.02469 10.8237 24.594 -0.0 0.0 -0.0 10.0493 -17.6693 -17.9192 -30.1039 31.5602 -58.0475 1.37954 34.3462 -0.426349 59.9973 1.77368 7.10768 1.68988 -12.6561 -16.088 0.0 0.0 0.0 13.2284 21.5554 -2.66613 -4.46598 0.157943 0.667023 14.6925 -21.915 -2.35643 -18.759 0.0 0.0 -0.0 0.0 -0.0 12.5459 -4.76087 -1.77056 -7.21351 -0.229092 -1.08263 35.343 -1.75668 4.44117 -38.1794 0.0 0.0 0.0 0.0 0.0 
2410.19522395 756.404 -1553.39473041 -110.892051016 82.2915465723 105.825516115 3.44502 0.467666 2.17882 3.4476 0.328109 2.20415 3.45915 -0.00795905 2.22841 3.45239 0.34399 2.20173 -11.7441 6.95641 -0.184621 -11.8338 13.2996 1.76451 -0.0 0.0 -0.0 -2.69247 13.4104 -2.85083 -19.7323 -47.9394 65.1095 0.386304 -10.8336 0.0366307 -50.1463 -4.08894 4.69053 3.02469 10.8237 24.594 -0.0 0.0 -0.0 10.0493 -17.6693 -17.9192 -30.1039 31.5602 -58.0475 1.37954 34.3462 -0.426349 59.9973 1.77368 7.10768 1.68988 -12.6561 -16.088 0.0 0.0 0.0 13.2284 21.5554 -2.66613 -4.46598 0.157943 0.667023 14.6925 -21.915 -2.35643 -18.759 0.0 0.0 -0.0 0.0 -0.0 12.5459 -4.76087 -1.77056 -7.21351 -0.229092 -1.08263 35.343 -1.75668 4.44117 -38.1794 0.0 0.0 0.0 0.0 0.0 
2409.10235807 756.404 -1547.82970611 -116.295213647 81.965034175 111.279976591 3.44502 0.467666 2.17882 3.4476 0.328109 2.20415 3.45915 -0.00795905 2.22841 3.45239 0.34399 2.20173 -11.7441 6.95641 -0.184621 -11.8338 13.2996 1.76451 -0.0 0.0 -0.0 -2.69247 13.4104 -2.85083 -19.7323 -47.9394 65.1095 0.386304 -10.8336 0.0366307 -50.1463 -4.08894 4.69053 3.02469 10.8237 24.594 -0.0 0.0 -0.0 10.0493 -17.6693 -17.9192 -30.1039 31.5602 -58.0475 1.37954 34.3462 -0.426349 59.9973 1.77368 7.10768 1.68988 -12.6561 -16.088 0.0 0.0 0.0 13.2284 21.5554 -2.66613 -4.46598 0.157943 0.667023 14.6925 -21.915 -2.35643 -18.759 0.0 0.0 -0.0 0.0 -0.0 12.5459 -4.76087 -1.77056 -7.21351 -0.229092 -1.08263 35.343 -1.75668 4.44117 -38.1794 0.0 0.0 0.0 0.0 0.0 
2408.60421306 756.404 -1545.14372055 -118.733520632 81.7836677585 113.743000595 3.44502 0.467666 2.17882 3.4476 0.328109 2.20415 3.45915 -0.00795905 2.22841 3.45239 0.34399 2.20173 -11.7441 6.95641 -0.184621 -11.8338 13.2996 1.76451 -0.0 0.0 -0.0 -2.69247 13.4104 -2.85083 -19.7323 -47.9394 65.1095 0.386304 -10.8336 0.0366307 -50.1463 -4.08894 4.69053 3.02469 10.8237 24.594 -0.0 0.0 -0.0 10.0493 -17.6693 -17.9192 -30.1039 31.5602 -58.0475 1.37954 34.3462 -0.426349 59.9973 1.77368 7.10768 1.68988 -12.6561 -16.088 0.0 0.0 0.0 13.2284 21.5554 -2.66613 -4.46598 0.157943 0.667023 14.6925 -21.915 -2.35643 -18.759 0.0 0.0 -0.0 0.0 -0.0 12.5459 -4.76087 -1.77056 -7.21351 -0.229092 -1.08263 35.343 -1.75668 4.44117 -38.1794 0.0 0.0 0.0 0.0 0.0 
